<?xml version="1.0" standalone="no"?>
<!DOCTYPE svg PUBLIC "-//W3C//DTD SVG 20010904//EN"
 "http://www.w3.org/TR/2001/REC-SVG-20010904/DTD/svg10.dtd">
<svg version="1.0" xmlns="http://www.w3.org/2000/svg"
 width="890.000000pt" height="501.000000pt" viewBox="0 0 890.000000 501.000000"
 preserveAspectRatio="xMidYMid meet">

<g transform="translate(0.000000,501.000000) scale(0.100000,-0.100000)"
fill="#000000" stroke="none">
<path d="M1418 3153 c6 -2 18 -2 25 0 6 3 1 5 -13 5 -14 0 -19 -2 -12 -5z"/>
<path d="M5711 2888 c0 -191 4 -283 13 -307 18 -49 55 -73 121 -79 l55 -4 0
56 c0 53 -1 56 -25 56 l-25 0 -2 273 -3 272 -67 3 -68 3 1 -273z"/>
<path d="M7320 3030 l0 -130 -40 40 c-36 36 -45 40 -91 40 -62 0 -118 -28
-145 -73 -41 -70 -46 -245 -9 -324 23 -49 73 -82 125 -84 78 -3 89 0 125 36
l35 36 0 -36 0 -36 63 3 62 3 0 325 0 325 -62 3 -63 3 0 -131z m-20 -182 c17
-19 20 -35 20 -114 0 -88 -1 -94 -26 -113 -36 -28 -86 -27 -120 2 -22 19 -28
34 -32 80 -10 119 17 167 93 167 33 0 50 -6 65 -22z"/>
<path d="M5305 3126 c-111 -44 -160 -103 -186 -228 -15 -69 -5 -182 21 -244
50 -116 114 -157 246 -156 61 0 90 5 121 21 43 22 116 98 110 115 -2 6 -25 23
-50 38 l-47 27 -22 -29 c-42 -58 -118 -75 -175 -40 -45 27 -64 71 -70 159 -9
135 26 208 108 220 62 10 105 -3 126 -39 9 -17 23 -30 29 -30 13 0 104 49 104
56 0 2 -10 19 -22 37 -25 40 -82 81 -123 92 -53 13 -139 14 -170 1z"/>
<path d="M3270 3095 c0 -23 4 -25 40 -25 l40 0 -2 -252 -3 -253 -36 -3 c-30
-2 -38 -8 -42 -27 -2 -14 -2 -27 1 -30 3 -3 59 -5 124 -5 101 0 120 2 125 16
10 27 -11 48 -48 48 l-34 1 0 250 0 250 43 3 c37 3 42 6 42 28 l0 24 -125 0
-125 0 0 -25z"/>
<path d="M3660 2820 c0 -165 -1 -303 -2 -307 -2 -5 68 -9 156 -11 152 -2 160
-2 200 22 56 33 86 88 86 159 0 51 -3 60 -38 97 -22 22 -46 40 -55 40 -27 0
-20 14 16 33 84 46 76 192 -15 247 -29 18 -51 20 -190 20 l-158 0 0 -300z
m300 227 c15 -8 31 -29 40 -54 13 -38 12 -46 -3 -78 -23 -47 -66 -65 -161 -65
-110 0 -106 -4 -106 111 l0 99 103 0 c62 0 112 -5 127 -13z m9 -268 c41 -14
51 -35 51 -104 0 -48 -4 -60 -26 -80 -25 -24 -33 -25 -145 -25 l-119 0 0 103
c0 57 3 107 7 110 11 11 198 8 232 -4z"/>
<path d="M4242 2813 l3 -308 35 0 35 0 0 256 c0 268 5 292 39 211 8 -20 33
-68 54 -107 21 -38 55 -99 74 -135 20 -35 39 -65 44 -67 5 -2 19 18 31 45 12
26 43 83 68 127 25 44 57 105 73 135 l27 55 5 -260 5 -260 33 -3 32 -3 0 300
c0 166 0 304 0 309 0 4 -21 8 -48 10 l-48 3 -39 -73 c-21 -40 -59 -112 -84
-160 -25 -49 -51 -88 -56 -88 -6 0 -27 33 -48 73 -58 113 -117 220 -129 234
-6 7 -32 13 -59 13 l-49 0 2 -307z"/>
<path d="M6070 2956 c-69 -35 -104 -99 -108 -196 -5 -94 10 -150 49 -195 45
-51 92 -70 169 -69 82 2 135 26 171 79 33 48 41 80 42 160 1 111 -34 181 -113
223 -58 31 -148 30 -210 -2z m172 -109 c14 -17 18 -42 18 -113 0 -77 -3 -93
-20 -112 -49 -52 -127 -29 -143 43 -11 52 -3 161 14 181 32 39 100 39 131 1z"/>
<path d="M6490 2796 c0 -192 9 -234 56 -275 21 -18 39 -23 92 -23 64 -1 67 0
98 36 l33 38 3 -34 3 -33 63 -3 62 -3 0 236 0 236 -62 -3 -63 -3 -3 -162 c-2
-161 -3 -162 -29 -182 -30 -24 -71 -27 -99 -7 -17 13 -19 31 -24 183 l-5 168
-62 3 -63 3 0 -175z"/>
<path d="M1243 2713 c-9 -3 -13 -32 -13 -96 0 -112 24 -172 98 -246 45 -45 64
-56 146 -90 30 -12 821 -14 994 -2 73 5 85 9 102 31 28 36 25 41 -12 22 -30
-15 -85 -17 -543 -17 l-510 1 -60 31 c-116 61 -166 139 -175 274 -5 92 -7 99
-27 92z"/>
<path d="M2668 2393 c-14 -16 -23 -34 -20 -42 3 -9 0 -11 -8 -6 -9 5 -11 4 -6
-4 6 -9 11 -9 22 0 7 6 11 15 8 20 -3 5 4 9 14 9 15 0 20 6 18 25 0 14 -1 25
-2 25 0 0 -12 -12 -26 -27z"/>
<path d="M3070 1970 l0 -390 158 1 c94 0 149 4 137 9 -11 4 -40 15 -65 24 -59
21 -144 96 -180 160 -17 28 -30 54 -30 59 0 4 13 7 30 7 16 0 40 5 53 11 21 9
30 8 55 -11 41 -31 56 -18 30 25 -34 59 -4 88 42 40 13 -14 30 -23 36 -21 7 3
26 -8 43 -25 31 -29 31 -29 142 -26 l110 2 -6 -34 c-4 -19 -20 -54 -36 -77
-16 -24 -29 -45 -29 -48 0 -15 29 -4 50 19 13 14 28 25 35 25 6 0 18 9 28 20
19 23 91 28 103 8 12 -18 -97 -113 -153 -133 -26 -9 -57 -21 -68 -25 -11 -5
424 -9 968 -9 l987 -1 0 390 0 390 -1220 0 -1220 0 0 -390z m1673 168 c14 -11
16 -38 17 -183 1 -93 1 -176 1 -182 -1 -19 -49 -16 -60 4 -9 17 -10 17 -28 0
-12 -10 -36 -17 -63 -17 -36 0 -48 6 -76 36 -30 32 -34 41 -34 92 0 67 24 113
71 137 30 16 44 16 97 0 21 -7 22 -5 22 52 0 75 13 90 53 61z m107 -83 c0 -30
3 -55 6 -55 3 0 17 9 31 20 14 11 37 20 50 20 36 0 80 -35 93 -74 11 -33 12
-167 2 -193 -12 -34 -20 -3 -24 94 -4 95 -7 108 -28 125 -30 25 -63 23 -97 -6
-26 -23 -28 -30 -33 -120 -8 -159 -25 -115 -28 74 -2 147 0 170 13 170 12 0
15 -12 15 -55z m532 3 c2 -17 11 -24 33 -26 36 -4 58 -21 30 -24 -11 0 -24 -2
-30 -3 -5 -2 -16 -3 -22 -4 -10 -1 -13 -27 -13 -95 0 -100 10 -126 51 -126 10
0 19 -4 19 -10 0 -5 -15 -10 -34 -10 -54 0 -66 26 -66 143 0 90 -2 99 -20 104
-11 3 -20 9 -20 14 0 5 9 9 20 9 13 0 20 7 20 18 0 36 27 44 32 10z m-1182
-53 c0 -30 -3 -35 -24 -35 -38 0 -50 -26 -56 -119 -5 -85 -5 -86 -32 -89 -36
-4 -40 13 -36 153 3 107 4 110 26 113 14 2 29 -4 37 -15 8 -10 15 -13 15 -7 0
11 36 32 58 33 7 1 12 -12 12 -34z m201 20 c38 -20 69 -70 69 -112 l0 -33 -90
0 c-99 0 -110 -8 -66 -49 20 -19 33 -22 77 -20 46 3 54 0 57 -15 5 -26 -15
-36 -78 -36 -67 0 -97 14 -127 59 -44 65 -22 160 46 200 43 25 72 26 112 6z
m822 4 c38 -17 45 -40 47 -150 3 -128 3 -128 -15 -105 -14 18 -16 18 -33 3
-25 -23 -94 -22 -115 1 -15 17 -20 38 -18 79 1 29 39 53 104 68 59 13 68 29
36 64 -19 20 -28 23 -71 18 -51 -6 -63 3 -25 21 29 14 60 15 90 1z"/>
<path d="M4590 1960 c-29 -29 -28 -102 2 -130 44 -41 95 -13 102 57 4 32 -10
74 -27 85 -22 14 -57 8 -77 -12z"/>
<path d="M4309 1972 c-36 -30 -20 -48 40 -44 55 4 64 17 33 45 -24 22 -44 21
-73 -1z"/>
<path d="M5135 1875 c-29 -28 -31 -42 -9 -73 20 -29 55 -28 93 4 24 19 31 34
31 60 0 34 0 34 -45 34 -35 0 -52 -6 -70 -25z"/>
<path d="M3480 1781 c0 -5 10 -11 23 -15 32 -8 37 -8 37 7 0 6 -14 13 -30 14
-17 1 -30 -2 -30 -6z"/>
</g>
</svg>
